<svg width="73" height="73" viewBox="0 0 73 73" fill="none" xmlns="http://www.w3.org/2000/svg">
<rect width="72.3933" height="72.3933" rx="36.1967" fill="url(#paint0_linear_146_6491)"/>
<path d="M14.3825 38.2955H16.9393L18.0259 39.6825L19.4514 41.3189L21.6438 44.0227H18.7802L17.2461 42.1882L16.3384 40.8842L14.3825 38.2955ZM21.7333 36.4545C21.7333 37.8949 21.4563 39.1158 20.9023 40.1172C20.3484 41.1186 19.5984 41.8793 18.6523 42.3991C17.7106 42.919 16.6538 43.179 15.4819 43.179C14.3058 43.179 13.2468 42.9169 12.305 42.3928C11.3633 41.8686 10.6154 41.108 10.0614 40.1108C9.51172 39.1094 9.23686 37.8906 9.23686 36.4545C9.23686 35.0142 9.51172 33.7933 10.0614 32.7919C10.6154 31.7905 11.3633 31.0298 12.305 30.5099C13.2468 29.9901 14.3058 29.7301 15.4819 29.7301C16.6538 29.7301 17.7106 29.9901 18.6523 30.5099C19.5984 31.0298 20.3484 31.7905 20.9023 32.7919C21.4563 33.7933 21.7333 35.0142 21.7333 36.4545ZM18.4989 36.4545C18.4989 35.6023 18.3775 34.8821 18.1346 34.294C17.896 33.706 17.5508 33.2607 17.0991 32.9581C16.6516 32.6555 16.1126 32.5043 15.4819 32.5043C14.8555 32.5043 14.3164 32.6555 13.8647 32.9581C13.413 33.2607 13.0657 33.706 12.8228 34.294C12.5842 34.8821 12.4648 35.6023 12.4648 36.4545C12.4648 37.3068 12.5842 38.027 12.8228 38.6151C13.0657 39.2031 13.413 39.6484 13.8647 39.951C14.3164 40.2536 14.8555 40.4048 15.4819 40.4048C16.1126 40.4048 16.6516 40.2536 17.0991 39.951C17.5508 39.6484 17.896 39.2031 18.1346 38.6151C18.3775 38.027 18.4989 37.3068 18.4989 36.4545ZM31.5179 29.9091H34.6756V38.353C34.6756 39.3288 34.4434 40.179 33.9789 40.9034C33.5144 41.6236 32.8667 42.1818 32.0357 42.5781C31.2047 42.9702 30.2395 43.1662 29.1401 43.1662C28.0279 43.1662 27.0563 42.9702 26.2253 42.5781C25.3944 42.1818 24.7488 41.6236 24.2885 40.9034C23.8283 40.179 23.5982 39.3288 23.5982 38.353V29.9091H26.7623V38.0781C26.7623 38.5298 26.8603 38.9325 27.0563 39.2862C27.2566 39.6399 27.5357 39.9169 27.8936 40.1172C28.2516 40.3175 28.6671 40.4176 29.1401 40.4176C29.6131 40.4176 30.0265 40.3175 30.3801 40.1172C30.7381 39.9169 31.0172 39.6399 31.2175 39.2862C31.4178 38.9325 31.5179 38.5298 31.5179 38.0781V29.9091ZM39.4904 43H36.0898L40.5067 29.9091H44.7191L49.136 43H45.7354L42.6609 33.2074H42.5586L39.4904 43ZM39.0366 37.848H46.1445V40.2514H39.0366V37.848ZM48.5575 29.9091H52.0923L54.8601 35.3871H54.9751L57.7429 29.9091H61.2777L56.4901 38.6278V43H53.3452V38.6278L48.5575 29.9091Z" fill="#353A7E"/>
<defs>
<linearGradient id="paint0_linear_146_6491" x1="4.15835" y1="75.7607" x2="68.235" y2="-3.36736" gradientUnits="userSpaceOnUse">
<stop stop-color="#A08020"/>
<stop offset="1" stop-color="#FFF888"/>
</linearGradient>
</defs>
</svg>
