<svg width="65" height="69" viewBox="0 0 65 69" fill="none" xmlns="http://www.w3.org/2000/svg">
<path d="M62.0689 51.754C57.3064 60.0033 46.7544 62.8302 38.5051 58.0676C30.2549 53.3038 27.4289 42.7528 32.1914 34.5039C36.9553 26.2523 47.505 23.4263 55.7552 28.1884C64.0054 32.9523 66.8328 43.5024 62.0689 51.754Z" fill="url(#paint0_radial_18_770)"/>
<path d="M32.1915 68.9999C41.7184 68.9999 49.4415 61.2768 49.4415 51.7498C49.4415 42.2229 41.7184 34.4998 32.1915 34.4998C22.6645 34.4998 14.9414 42.2229 14.9414 51.7498C14.9414 61.2768 22.6645 68.9999 32.1915 68.9999Z" fill="url(#paint1_radial_18_770)"/>
<path d="M34.0016 67.3624C25.4749 67.3624 18.5625 60.449 18.5625 51.9224C18.5625 43.3958 25.4749 36.4824 34.0016 36.4824C42.5296 36.4824 49.4415 43.3958 49.4415 51.9238C49.4415 60.4495 42.5296 67.3624 34.0016 67.3624Z" fill="url(#paint2_linear_18_770)"/>
<path d="M34.0023 66.8918C25.736 66.8918 19.0333 60.1901 19.0342 51.9219C19.0342 43.6546 25.736 36.9533 34.0023 36.9519C42.2705 36.9519 48.9718 43.6542 48.9718 51.9219C48.9718 60.1901 42.27 66.8918 34.0023 66.8918Z" fill="url(#paint3_linear_18_770)"/>
<path d="M34.0016 67.3624C25.4749 67.3624 18.5625 60.449 18.5625 51.9224C18.5625 43.3958 25.4749 36.4824 34.0016 36.4824C42.5296 36.4824 49.4415 43.3958 49.4415 51.9224C49.4415 60.449 42.5296 67.3624 34.0016 67.3624Z" fill="url(#paint4_linear_18_770)"/>
<path d="M34.0023 66.8918C25.736 66.8918 19.0342 60.1901 19.0342 51.9219C19.0342 43.6546 25.736 36.9519 34.0023 36.9519C42.2705 36.9519 48.9718 43.6542 48.9718 51.9219C48.9718 60.1901 42.27 66.8918 34.0023 66.8918Z" fill="url(#paint5_linear_18_770)"/>
<path d="M2.31352 51.7498C-2.44899 43.5005 0.376967 32.9486 8.6272 28.1847C16.8774 23.4222 27.4284 26.2509 32.1909 34.4998C36.9548 42.75 34.1275 53.301 25.8773 58.0635C17.627 62.8269 7.07694 60.0001 2.31352 51.7498Z" fill="url(#paint6_radial_18_770)"/>
<path d="M4.63868 52.4986C0.374679 45.1139 2.9054 35.6707 10.2897 31.4081C17.6749 27.1441 27.1176 29.6753 31.3816 37.0587C35.6442 44.4443 33.1148 53.887 25.7297 58.151C18.3445 62.4136 8.90268 59.8829 4.63868 52.4986Z" fill="url(#paint7_linear_18_770)"/>
<path d="M5.04397 52.2633C0.910581 45.1044 3.36357 35.9486 10.5234 31.8152C17.6828 27.6823 26.8381 30.1348 30.9715 37.2952C35.1053 44.4536 32.6519 53.6098 25.493 57.7428C18.3331 61.8771 9.17875 59.4232 5.04397 52.2633Z" fill="url(#paint8_linear_18_770)"/>
<path d="M2.31413 17.2504C7.07572 9.0011 17.6272 6.17284 25.8779 10.9367C34.1281 15.6997 36.9541 26.2516 32.1916 34.5005C27.4277 42.7507 16.878 45.578 8.62781 40.8146C0.37758 36.0516 -2.44976 25.5006 2.31413 17.2504Z" fill="url(#paint9_radial_18_770)"/>
<path d="M2.82579 19.6369C7.08978 12.2521 16.5329 9.72234 23.9163 13.9854C31.3015 18.249 33.8327 27.6935 29.5682 35.0769C25.3042 42.4625 15.8611 44.9918 8.47632 40.7278C1.0925 36.4648 -1.43729 27.0221 2.82579 19.6369Z" fill="url(#paint10_linear_18_770)"/>
<path d="M3.23419 19.8729C7.36712 12.7126 16.5233 10.2587 23.6818 14.393C30.8417 18.5264 33.2942 27.6821 29.1617 34.8411C25.0279 42.0009 15.8726 44.4539 8.71227 40.3205C1.55333 36.1876 -0.900584 27.0332 3.23419 19.8729Z" fill="url(#paint11_linear_18_770)"/>
<path d="M32.1915 34.5001C41.7184 34.5001 49.4415 26.777 49.4415 17.2501C49.4415 7.72312 41.7184 0 32.1915 0C22.6645 0 14.9414 7.72312 14.9414 17.2501C14.9414 26.777 22.6645 34.5001 32.1915 34.5001Z" fill="url(#paint12_radial_18_770)"/>
<path d="M30.3814 1.63721C38.908 1.63721 45.82 8.55056 45.82 17.0772C45.82 25.6038 38.908 32.5172 30.38 32.5172C21.8534 32.5172 14.9414 25.6038 14.9414 17.0762C14.9409 8.55055 21.8534 1.63767 30.3814 1.63721Z" fill="url(#paint13_linear_18_770)"/>
<path d="M30.3821 2.10693C38.6484 2.10693 45.3516 8.80875 45.3502 17.0769C45.3502 25.3451 38.6484 32.0455 30.3821 32.0469C22.1139 32.0469 15.4126 25.3451 15.4121 17.0769C15.4121 8.80921 22.1139 2.10693 30.3821 2.10693Z" fill="url(#paint14_linear_18_770)"/>
<path d="M62.0695 17.2496C66.8325 25.4989 64.0065 36.0509 55.7558 40.8138C47.5056 45.5773 36.955 42.7486 32.1921 34.4997C27.4282 26.2495 30.2555 15.6985 38.5057 10.936C46.756 6.17207 57.3056 8.99941 62.0695 17.2496Z" fill="url(#paint15_radial_18_770)"/>
<path d="M59.7451 16.5009C64.0091 23.8861 61.4779 33.3287 54.0941 37.5914C46.7089 41.8554 37.2662 39.3256 33.0022 31.9408C28.7396 24.5552 31.2694 15.1125 38.6541 10.8499C46.0379 6.58631 55.4811 9.11566 59.7451 16.5009Z" fill="url(#paint16_linear_18_770)"/>
<path d="M59.3372 16.7372C63.4706 23.8957 61.0176 33.0519 53.8577 37.1853C46.6979 41.3182 37.543 38.8657 33.4096 31.7054C29.2753 24.5464 31.7293 15.3907 38.8882 11.2578C46.048 7.12344 55.2029 9.57738 59.3372 16.7372Z" fill="url(#paint17_linear_18_770)"/>
<path d="M34.813 33.924C33.6366 35.9604 32.9804 38.154 32.7969 40.3513C33.3611 42.228 33.5502 44.1623 33.3924 46.0556C34.48 49.7038 36.9073 52.9611 40.464 55.0159C47.8487 59.2785 57.2914 56.7487 61.5554 49.364C65.818 41.9783 63.2882 32.5356 55.903 28.273C48.5197 24.009 39.077 26.5384 34.813 33.924Z" fill="url(#paint18_linear_18_770)"/>
<path d="M40.7 54.6072C47.8585 58.7402 57.0147 56.2876 61.1476 49.1273C65.2824 41.9688 62.828 32.8127 55.6695 28.6797C48.5097 24.5463 39.3535 26.9993 35.2206 34.1592C33.7678 36.6765 33.1318 39.439 33.2247 42.145C33.3433 42.827 33.4118 43.514 33.4362 44.1993C34.1706 48.42 36.7 52.2982 40.7 54.6072Z" fill="url(#paint19_linear_18_770)"/>
<path d="M33.2256 42.1453C33.25 42.8355 33.3199 43.5212 33.4371 44.1995C33.4128 43.5143 33.3438 42.8273 33.2256 42.1453Z" fill="url(#paint20_linear_18_770)"/>
<path d="M49.4412 51.9224C49.4412 43.3958 42.5293 36.4824 34.0013 36.4824C33.0396 36.4824 32.0996 36.5753 31.1868 36.7437C31.2507 36.849 31.3179 36.9511 31.3799 37.0591C35.6426 44.4448 33.1132 53.8875 25.728 58.1515C24.1608 59.0556 22.5015 59.6516 20.8184 59.9625C23.5312 64.4003 28.4206 67.3624 34.0008 67.3624C42.5292 67.3624 49.4412 60.449 49.4412 51.9224Z" fill="url(#paint21_linear_18_770)"/>
<path d="M48.9707 51.9224C48.9707 43.6551 42.2688 36.9524 34.0011 36.9524C33.1292 36.9524 32.2747 37.032 31.4433 37.175C35.6144 44.5427 33.074 53.9086 25.7279 58.151C24.3142 58.9659 22.8261 59.5306 21.3145 59.8626C23.9611 64.0834 28.6523 66.8919 34.0011 66.8919C42.2688 66.8919 48.9707 60.1901 48.9707 51.9224Z" fill="url(#paint22_linear_18_770)"/>
<defs>
<radialGradient id="paint0_radial_18_770" cx="0" cy="0" r="1" gradientUnits="userSpaceOnUse" gradientTransform="translate(47.1304 43.1287) rotate(30.0008) scale(17.2501)">
<stop offset="0.3874" stop-color="#1A1A1A"/>
<stop offset="0.4851" stop-color="#1C1C1C"/>
<stop offset="0.5203" stop-color="#232323"/>
<stop offset="0.5454" stop-color="#2E2E2E"/>
<stop offset="0.5657" stop-color="#3F3F3F"/>
<stop offset="0.5831" stop-color="#555555"/>
<stop offset="0.5985" stop-color="#717171"/>
<stop offset="0.6124" stop-color="#919191"/>
<stop offset="0.6248" stop-color="#B5B5B5"/>
<stop offset="0.6335" stop-color="#D4D4D4"/>
<stop offset="0.7489" stop-color="#D8D8D8"/>
<stop offset="0.8564" stop-color="#E3E3E3"/>
<stop offset="0.9604" stop-color="#F6F6F6"/>
<stop offset="1" stop-color="white"/>
</radialGradient>
<radialGradient id="paint1_radial_18_770" cx="0" cy="0" r="1" gradientUnits="userSpaceOnUse" gradientTransform="translate(32.1914 51.7496) rotate(90) scale(17.25 17.25)">
<stop offset="0.3874" stop-color="#1A1A1A"/>
<stop offset="0.4851" stop-color="#1C1C1C"/>
<stop offset="0.5203" stop-color="#232323"/>
<stop offset="0.5454" stop-color="#2E2E2E"/>
<stop offset="0.5657" stop-color="#3F3F3F"/>
<stop offset="0.5831" stop-color="#555555"/>
<stop offset="0.5985" stop-color="#717171"/>
<stop offset="0.6124" stop-color="#919191"/>
<stop offset="0.6248" stop-color="#B5B5B5"/>
<stop offset="0.6335" stop-color="#D4D4D4"/>
<stop offset="0.7489" stop-color="#D8D8D8"/>
<stop offset="0.8564" stop-color="#E3E3E3"/>
<stop offset="0.9604" stop-color="#F6F6F6"/>
<stop offset="1" stop-color="white"/>
</radialGradient>
<linearGradient id="paint2_linear_18_770" x1="18.5622" y1="51.9223" x2="49.4414" y2="51.9223" gradientUnits="userSpaceOnUse">
<stop stop-color="#B3B6B9"/>
<stop offset="0.2846" stop-color="#B2B4BC"/>
<stop offset="0.4999" stop-color="#AFAFC6"/>
<stop offset="0.6925" stop-color="#A9A7D6"/>
<stop offset="0.8707" stop-color="#A19BED"/>
<stop offset="0.9476" stop-color="#9D95F9"/>
</linearGradient>
<linearGradient id="paint3_linear_18_770" x1="24.3805" y1="40.4551" x2="43.625" y2="63.3899" gradientUnits="userSpaceOnUse">
<stop stop-color="#FFFBF9"/>
<stop offset="0.1555" stop-color="#FDF1E7"/>
<stop offset="0.451" stop-color="#F9E1C9"/>
<stop offset="0.7062" stop-color="#F7D7B7"/>
<stop offset="0.8901" stop-color="#F6D3B1"/>
</linearGradient>
<linearGradient id="paint4_linear_18_770" x1="18.5622" y1="51.9222" x2="49.4414" y2="51.9222" gradientUnits="userSpaceOnUse">
<stop stop-color="#B3B6B9"/>
<stop offset="0.2846" stop-color="#B2B4BC"/>
<stop offset="0.4999" stop-color="#AFAFC6"/>
<stop offset="0.6925" stop-color="#A9A7D6"/>
<stop offset="0.8707" stop-color="#A19BED"/>
<stop offset="0.9476" stop-color="#9D95F9"/>
</linearGradient>
<linearGradient id="paint5_linear_18_770" x1="24.3803" y1="40.4547" x2="43.6252" y2="63.3898" gradientUnits="userSpaceOnUse">
<stop stop-color="#FFFBF9"/>
<stop offset="0.1555" stop-color="#FDF1E7"/>
<stop offset="0.451" stop-color="#F9E1C9"/>
<stop offset="0.7062" stop-color="#F7D7B7"/>
<stop offset="0.8901" stop-color="#F6D3B1"/>
</linearGradient>
<radialGradient id="paint6_radial_18_770" cx="0" cy="0" r="1" gradientUnits="userSpaceOnUse" gradientTransform="translate(17.2521 43.1242) rotate(149.999) scale(17.2501 17.2501)">
<stop offset="0.3874" stop-color="#1A1A1A"/>
<stop offset="0.4851" stop-color="#1C1C1C"/>
<stop offset="0.5203" stop-color="#232323"/>
<stop offset="0.5454" stop-color="#2E2E2E"/>
<stop offset="0.5657" stop-color="#3F3F3F"/>
<stop offset="0.5831" stop-color="#555555"/>
<stop offset="0.5985" stop-color="#717171"/>
<stop offset="0.6124" stop-color="#919191"/>
<stop offset="0.6248" stop-color="#B5B5B5"/>
<stop offset="0.6335" stop-color="#D4D4D4"/>
<stop offset="0.7489" stop-color="#D8D8D8"/>
<stop offset="0.8564" stop-color="#E3E3E3"/>
<stop offset="0.9604" stop-color="#F6F6F6"/>
<stop offset="1" stop-color="white"/>
</radialGradient>
<linearGradient id="paint7_linear_18_770" x1="10.2901" y1="31.4079" x2="25.7306" y2="58.1507" gradientUnits="userSpaceOnUse">
<stop stop-color="#F2CE1C"/>
<stop offset="0.058" stop-color="#F3D12D"/>
<stop offset="0.3177" stop-color="#F7E075"/>
<stop offset="0.5509" stop-color="#FBECAE"/>
<stop offset="0.7495" stop-color="#FDF4D7"/>
<stop offset="0.9056" stop-color="#FEF9F0"/>
<stop offset="1" stop-color="#FFFBF9"/>
</linearGradient>
<linearGradient id="paint8_linear_18_770" x1="23.1277" y1="30.7124" x2="12.8884" y2="58.8459" gradientUnits="userSpaceOnUse">
<stop stop-color="#FFFBF9"/>
<stop offset="0.0944" stop-color="#FEF9F0"/>
<stop offset="0.2505" stop-color="#FDF4D7"/>
<stop offset="0.4491" stop-color="#FBECAE"/>
<stop offset="0.6823" stop-color="#F7E075"/>
<stop offset="0.942" stop-color="#F3D12D"/>
<stop offset="1" stop-color="#F2CE1C"/>
</linearGradient>
<radialGradient id="paint9_radial_18_770" cx="0" cy="0" r="1" gradientUnits="userSpaceOnUse" gradientTransform="translate(17.2529 25.8753) rotate(-149.999) scale(17.2499)">
<stop offset="0.3874" stop-color="#1A1A1A"/>
<stop offset="0.4851" stop-color="#1C1C1C"/>
<stop offset="0.5203" stop-color="#232323"/>
<stop offset="0.5454" stop-color="#2E2E2E"/>
<stop offset="0.5657" stop-color="#3F3F3F"/>
<stop offset="0.5831" stop-color="#555555"/>
<stop offset="0.5985" stop-color="#717171"/>
<stop offset="0.6124" stop-color="#919191"/>
<stop offset="0.6248" stop-color="#B5B5B5"/>
<stop offset="0.6335" stop-color="#D4D4D4"/>
<stop offset="0.7489" stop-color="#D8D8D8"/>
<stop offset="0.8564" stop-color="#E3E3E3"/>
<stop offset="0.9604" stop-color="#F6F6F6"/>
<stop offset="1" stop-color="white"/>
</radialGradient>
<linearGradient id="paint10_linear_18_770" x1="23.917" y1="13.9856" x2="8.47684" y2="40.7281" gradientUnits="userSpaceOnUse">
<stop stop-color="#F2CE1C"/>
<stop offset="0.058" stop-color="#F3D12D"/>
<stop offset="0.3177" stop-color="#F7E075"/>
<stop offset="0.5509" stop-color="#FBECAE"/>
<stop offset="0.7495" stop-color="#FDF4D7"/>
<stop offset="0.9056" stop-color="#FEF9F0"/>
<stop offset="1" stop-color="#FFFBF9"/>
</linearGradient>
<linearGradient id="paint11_linear_18_770" x1="30.9394" y1="24.7575" x2="1.45499" y2="29.956" gradientUnits="userSpaceOnUse">
<stop stop-color="#FFFBF9"/>
<stop offset="0.0944" stop-color="#FEF9F0"/>
<stop offset="0.2505" stop-color="#FDF4D7"/>
<stop offset="0.4491" stop-color="#FBECAE"/>
<stop offset="0.6823" stop-color="#F7E075"/>
<stop offset="0.942" stop-color="#F3D12D"/>
<stop offset="1" stop-color="#F2CE1C"/>
</linearGradient>
<radialGradient id="paint12_radial_18_770" cx="0" cy="0" r="1" gradientUnits="userSpaceOnUse" gradientTransform="translate(32.1914 17.2501) rotate(-90) scale(17.25 17.25)">
<stop offset="0.3874" stop-color="#1A1A1A"/>
<stop offset="0.4851" stop-color="#1C1C1C"/>
<stop offset="0.5203" stop-color="#232323"/>
<stop offset="0.5454" stop-color="#2E2E2E"/>
<stop offset="0.5657" stop-color="#3F3F3F"/>
<stop offset="0.5831" stop-color="#555555"/>
<stop offset="0.5985" stop-color="#717171"/>
<stop offset="0.6124" stop-color="#919191"/>
<stop offset="0.6248" stop-color="#B5B5B5"/>
<stop offset="0.6335" stop-color="#D4D4D4"/>
<stop offset="0.7489" stop-color="#D8D8D8"/>
<stop offset="0.8564" stop-color="#E3E3E3"/>
<stop offset="0.9604" stop-color="#F6F6F6"/>
<stop offset="1" stop-color="white"/>
</radialGradient>
<linearGradient id="paint13_linear_18_770" x1="45.8199" y1="17.0772" x2="14.9411" y2="17.0772" gradientUnits="userSpaceOnUse">
<stop stop-color="#F2CE1C"/>
<stop offset="0.058" stop-color="#F3D12D"/>
<stop offset="0.3177" stop-color="#F7E075"/>
<stop offset="0.5509" stop-color="#FBECAE"/>
<stop offset="0.7495" stop-color="#FDF4D7"/>
<stop offset="0.9056" stop-color="#FEF9F0"/>
<stop offset="1" stop-color="#FFFBF9"/>
</linearGradient>
<linearGradient id="paint14_linear_18_770" x1="40.0036" y1="28.5442" x2="20.7589" y2="5.60924" gradientUnits="userSpaceOnUse">
<stop stop-color="#FFFBF9"/>
<stop offset="0.0944" stop-color="#FEF9F0"/>
<stop offset="0.2505" stop-color="#FDF4D7"/>
<stop offset="0.4491" stop-color="#FBECAE"/>
<stop offset="0.6823" stop-color="#F7E075"/>
<stop offset="0.942" stop-color="#F3D12D"/>
<stop offset="1" stop-color="#F2CE1C"/>
</linearGradient>
<radialGradient id="paint15_radial_18_770" cx="0" cy="0" r="1" gradientUnits="userSpaceOnUse" gradientTransform="translate(47.1309 25.8748) rotate(-30.0008) scale(17.2499)">
<stop offset="0.3874" stop-color="#1A1A1A"/>
<stop offset="0.4851" stop-color="#1C1C1C"/>
<stop offset="0.5203" stop-color="#232323"/>
<stop offset="0.5454" stop-color="#2E2E2E"/>
<stop offset="0.5657" stop-color="#3F3F3F"/>
<stop offset="0.5831" stop-color="#555555"/>
<stop offset="0.5985" stop-color="#717171"/>
<stop offset="0.6124" stop-color="#919191"/>
<stop offset="0.6248" stop-color="#B5B5B5"/>
<stop offset="0.6335" stop-color="#D4D4D4"/>
<stop offset="0.7489" stop-color="#D8D8D8"/>
<stop offset="0.8564" stop-color="#E3E3E3"/>
<stop offset="0.9604" stop-color="#F6F6F6"/>
<stop offset="1" stop-color="white"/>
</radialGradient>
<linearGradient id="paint16_linear_18_770" x1="54.0937" y1="37.5919" x2="38.6538" y2="10.8501" gradientUnits="userSpaceOnUse">
<stop stop-color="#F2CE1C"/>
<stop offset="0.058" stop-color="#F3D12D"/>
<stop offset="0.3177" stop-color="#F7E075"/>
<stop offset="0.5509" stop-color="#FBECAE"/>
<stop offset="0.7495" stop-color="#FDF4D7"/>
<stop offset="0.9056" stop-color="#FEF9F0"/>
<stop offset="1" stop-color="#FFFBF9"/>
</linearGradient>
<linearGradient id="paint17_linear_18_770" x1="41.2534" y1="38.2881" x2="51.4928" y2="10.1545" gradientUnits="userSpaceOnUse">
<stop stop-color="#FFFBF9"/>
<stop offset="0.0944" stop-color="#FEF9F0"/>
<stop offset="0.2505" stop-color="#FDF4D7"/>
<stop offset="0.4491" stop-color="#FBECAE"/>
<stop offset="0.6823" stop-color="#F7E075"/>
<stop offset="0.942" stop-color="#F3D12D"/>
<stop offset="1" stop-color="#F2CE1C"/>
</linearGradient>
<linearGradient id="paint18_linear_18_770" x1="56.3756" y1="36.9145" x2="29.6318" y2="52.3551" gradientUnits="userSpaceOnUse">
<stop stop-color="#FFFBF9"/>
<stop offset="0.0944" stop-color="#FEF9F0"/>
<stop offset="0.2505" stop-color="#FDF4D7"/>
<stop offset="0.4491" stop-color="#FBECAE"/>
<stop offset="0.6823" stop-color="#F7E075"/>
<stop offset="0.942" stop-color="#F3D12D"/>
<stop offset="1" stop-color="#F2CE1C"/>
</linearGradient>
<linearGradient id="paint19_linear_18_770" x1="33.4436" y1="44.2426" x2="62.9268" y2="39.0443" gradientUnits="userSpaceOnUse">
<stop stop-color="#FFFBF9"/>
<stop offset="0.0944" stop-color="#FEF9F0"/>
<stop offset="0.2505" stop-color="#FDF4D7"/>
<stop offset="0.4491" stop-color="#FBECAE"/>
<stop offset="0.6823" stop-color="#F7E075"/>
<stop offset="0.942" stop-color="#F3D12D"/>
<stop offset="1" stop-color="#F2CE1C"/>
</linearGradient>
<linearGradient id="paint20_linear_18_770" x1="22.4776" y1="24.3736" x2="37.916" y2="51.1125" gradientUnits="userSpaceOnUse">
<stop stop-color="#B3B6B9"/>
<stop offset="0.2846" stop-color="#B2B4BC"/>
<stop offset="0.4999" stop-color="#AFAFC6"/>
<stop offset="0.6925" stop-color="#A9A7D6"/>
<stop offset="0.8707" stop-color="#A19BED"/>
<stop offset="0.9476" stop-color="#9D95F9"/>
</linearGradient>
<linearGradient id="paint21_linear_18_770" x1="20.8184" y1="51.9222" x2="49.4411" y2="51.9222" gradientUnits="userSpaceOnUse">
<stop stop-color="#F2CE1C"/>
<stop offset="0.058" stop-color="#F3D12D"/>
<stop offset="0.3177" stop-color="#F7E075"/>
<stop offset="0.5509" stop-color="#FBECAE"/>
<stop offset="0.7495" stop-color="#FDF4D7"/>
<stop offset="0.9056" stop-color="#FEF9F0"/>
<stop offset="1" stop-color="#FFFBF9"/>
</linearGradient>
<linearGradient id="paint22_linear_18_770" x1="25.6844" y1="42.0072" x2="43.6255" y2="63.3886" gradientUnits="userSpaceOnUse">
<stop stop-color="#FFFBF9"/>
<stop offset="0.0944" stop-color="#FEF9F0"/>
<stop offset="0.2505" stop-color="#FDF4D7"/>
<stop offset="0.4491" stop-color="#FBECAE"/>
<stop offset="0.6823" stop-color="#F7E075"/>
<stop offset="0.942" stop-color="#F3D12D"/>
<stop offset="1" stop-color="#F2CE1C"/>
</linearGradient>
</defs>
</svg>
